<mxfile host="app.diagrams.net" modified="2024-06-20T16:35:12.686Z" agent="Mozilla/5.0 (X11; Ubuntu; Linux x86_64; rv:123.0) Gecko/20100101 Firefox/123.0" etag="Koioc_PPpbBQiOKdSLeM" version="24.5.5" type="device">
  <diagram name="PÃ¡gina-1" id="pnkKG1xDQ4r84PMHm7d6">
    <mxGraphModel dx="1364" dy="795" grid="1" gridSize="10" guides="1" tooltips="1" connect="1" arrows="1" fold="1" page="1" pageScale="1" pageWidth="827" pageHeight="1169" math="0" shadow="0">
      <root>
        <mxCell id="0" />
        <mxCell id="1" parent="0" />
        <mxCell id="k2xtMvNpg32Ia1_yo8kl-1" value="" style="verticalLabelPosition=bottom;shadow=0;dashed=0;align=center;html=1;verticalAlign=top;shape=mxgraph.electrical.logic_gates.jk_flip-flop_with_sr;" parent="1" vertex="1">
          <mxGeometry x="364" y="120" width="100" height="100" as="geometry" />
        </mxCell>
        <mxCell id="k2xtMvNpg32Ia1_yo8kl-2" value="" style="verticalLabelPosition=bottom;shadow=0;dashed=0;align=center;html=1;verticalAlign=top;shape=mxgraph.electrical.logic_gates.inverting_contact;" parent="1" vertex="1">
          <mxGeometry x="190" y="165" width="10" height="10" as="geometry" />
        </mxCell>
        <mxCell id="k2xtMvNpg32Ia1_yo8kl-3" value="Clk" style="text;strokeColor=none;align=center;fillColor=none;html=1;verticalAlign=middle;whiteSpace=wrap;rounded=0;fontSize=10;" parent="1" vertex="1">
          <mxGeometry x="140" y="155" width="60" height="30" as="geometry" />
        </mxCell>
        <mxCell id="k2xtMvNpg32Ia1_yo8kl-9" value="1" style="text;strokeColor=none;align=center;fillColor=none;html=1;verticalAlign=middle;whiteSpace=wrap;rounded=0;fontSize=10;" parent="1" vertex="1">
          <mxGeometry x="320" y="175" width="60" height="30" as="geometry" />
        </mxCell>
        <mxCell id="k2xtMvNpg32Ia1_yo8kl-10" value="1" style="text;strokeColor=none;align=center;fillColor=none;html=1;verticalAlign=middle;whiteSpace=wrap;rounded=0;fontSize=10;" parent="1" vertex="1">
          <mxGeometry x="320" y="132.5" width="60" height="30" as="geometry" />
        </mxCell>
        <mxCell id="QnQLokl2paKiinl1mr7T-19" value="FF0" style="text;strokeColor=none;align=center;fillColor=none;html=1;verticalAlign=middle;whiteSpace=wrap;rounded=0;" parent="1" vertex="1">
          <mxGeometry x="384" y="155" width="60" height="30" as="geometry" />
        </mxCell>
        <mxCell id="QnQLokl2paKiinl1mr7T-64" style="edgeStyle=orthogonalEdgeStyle;rounded=0;orthogonalLoop=1;jettySize=auto;html=1;exitX=0;exitY=0;exitDx=0;exitDy=0;endArrow=none;endFill=0;" parent="1" edge="1">
          <mxGeometry relative="1" as="geometry">
            <mxPoint x="767.5" y="105" as="targetPoint" />
            <mxPoint x="607.5" y="105" as="sourcePoint" />
            <Array as="points">
              <mxPoint x="722.5" y="105" />
            </Array>
          </mxGeometry>
        </mxCell>
        <mxCell id="QnQLokl2paKiinl1mr7T-65" style="edgeStyle=orthogonalEdgeStyle;rounded=0;orthogonalLoop=1;jettySize=auto;html=1;exitX=0.25;exitY=0;exitDx=0;exitDy=0;endArrow=none;endFill=0;" parent="1" source="QnQLokl2paKiinl1mr7T-62" edge="1">
          <mxGeometry relative="1" as="geometry">
            <mxPoint x="767.5" y="142" as="targetPoint" />
          </mxGeometry>
        </mxCell>
        <mxCell id="QnQLokl2paKiinl1mr7T-66" style="edgeStyle=orthogonalEdgeStyle;rounded=0;orthogonalLoop=1;jettySize=auto;html=1;exitX=0.5;exitY=0;exitDx=0;exitDy=0;endArrow=none;endFill=0;" parent="1" source="QnQLokl2paKiinl1mr7T-62" edge="1">
          <mxGeometry relative="1" as="geometry">
            <mxPoint x="767.5" y="185" as="targetPoint" />
          </mxGeometry>
        </mxCell>
        <mxCell id="QnQLokl2paKiinl1mr7T-67" style="edgeStyle=orthogonalEdgeStyle;rounded=0;orthogonalLoop=1;jettySize=auto;html=1;exitX=0.75;exitY=0;exitDx=0;exitDy=0;endArrow=none;endFill=0;" parent="1" source="QnQLokl2paKiinl1mr7T-62" edge="1">
          <mxGeometry relative="1" as="geometry">
            <mxPoint x="767.5" y="228" as="targetPoint" />
          </mxGeometry>
        </mxCell>
        <mxCell id="QnQLokl2paKiinl1mr7T-68" style="edgeStyle=orthogonalEdgeStyle;rounded=0;orthogonalLoop=1;jettySize=auto;html=1;exitX=1;exitY=0;exitDx=0;exitDy=0;endArrow=none;endFill=0;" parent="1" edge="1">
          <mxGeometry relative="1" as="geometry">
            <mxPoint x="767.5" y="263" as="targetPoint" />
            <mxPoint x="625" y="267.5" as="sourcePoint" />
            <Array as="points">
              <mxPoint x="625" y="262.5" />
            </Array>
          </mxGeometry>
        </mxCell>
        <mxCell id="nmVDLG2SwFyJyHrFb4c8-11" style="edgeStyle=orthogonalEdgeStyle;rounded=0;orthogonalLoop=1;jettySize=auto;html=1;exitX=0.75;exitY=1;exitDx=0;exitDy=0;endArrow=none;endFill=0;" edge="1" parent="1" source="QnQLokl2paKiinl1mr7T-62">
          <mxGeometry relative="1" as="geometry">
            <mxPoint x="529.9999999999999" y="227.5625" as="targetPoint" />
          </mxGeometry>
        </mxCell>
        <mxCell id="QnQLokl2paKiinl1mr7T-62" value="" style="rounded=0;whiteSpace=wrap;html=1;rotation=90;" parent="1" vertex="1">
          <mxGeometry x="510" y="137.5" width="170" height="95" as="geometry" />
        </mxCell>
        <mxCell id="QnQLokl2paKiinl1mr7T-63" value="&lt;div&gt;DECODE&lt;/div&gt;&lt;div&gt;CONTADOR&lt;br&gt;&lt;/div&gt;" style="text;strokeColor=none;align=center;fillColor=none;html=1;verticalAlign=middle;whiteSpace=wrap;rounded=0;fontSize=10;" parent="1" vertex="1">
          <mxGeometry x="565" y="160" width="60" height="30" as="geometry" />
        </mxCell>
        <mxCell id="QnQLokl2paKiinl1mr7T-69" value="" style="edgeStyle=none;orthogonalLoop=1;jettySize=auto;html=1;rounded=0;endArrow=none;endFill=0;" parent="1" edge="1">
          <mxGeometry width="80" relative="1" as="geometry">
            <mxPoint x="643.5" y="124.74000000000001" as="sourcePoint" />
            <mxPoint x="767.5" y="125" as="targetPoint" />
            <Array as="points" />
          </mxGeometry>
        </mxCell>
        <mxCell id="QnQLokl2paKiinl1mr7T-70" value="" style="edgeStyle=none;orthogonalLoop=1;jettySize=auto;html=1;rounded=0;endArrow=none;endFill=0;" parent="1" edge="1">
          <mxGeometry width="80" relative="1" as="geometry">
            <mxPoint x="642.5" y="164.74" as="sourcePoint" />
            <mxPoint x="767.5" y="165" as="targetPoint" />
            <Array as="points" />
          </mxGeometry>
        </mxCell>
        <mxCell id="QnQLokl2paKiinl1mr7T-71" value="Cont1_SegA" style="text;strokeColor=none;align=center;fillColor=none;html=1;verticalAlign=middle;whiteSpace=wrap;rounded=0;fontSize=10;" parent="1" vertex="1">
          <mxGeometry x="707.5" y="80" width="60" height="30" as="geometry" />
        </mxCell>
        <mxCell id="QnQLokl2paKiinl1mr7T-72" value="Cont1_SegB" style="text;strokeColor=none;align=center;fillColor=none;html=1;verticalAlign=middle;whiteSpace=wrap;rounded=0;fontSize=10;" parent="1" vertex="1">
          <mxGeometry x="707.5" y="100" width="60" height="30" as="geometry" />
        </mxCell>
        <mxCell id="QnQLokl2paKiinl1mr7T-73" value="Cont1_SegC" style="text;strokeColor=none;align=center;fillColor=none;html=1;verticalAlign=middle;whiteSpace=wrap;rounded=0;fontSize=10;" parent="1" vertex="1">
          <mxGeometry x="707.5" y="120" width="60" height="30" as="geometry" />
        </mxCell>
        <mxCell id="QnQLokl2paKiinl1mr7T-74" value="Cont1_SegD" style="text;strokeColor=none;align=center;fillColor=none;html=1;verticalAlign=middle;whiteSpace=wrap;rounded=0;fontSize=10;" parent="1" vertex="1">
          <mxGeometry x="707.5" y="140" width="60" height="30" as="geometry" />
        </mxCell>
        <mxCell id="QnQLokl2paKiinl1mr7T-75" value="Cont1_SegE" style="text;strokeColor=none;align=center;fillColor=none;html=1;verticalAlign=middle;whiteSpace=wrap;rounded=0;fontSize=10;" parent="1" vertex="1">
          <mxGeometry x="712.5" y="162.5" width="50" height="25" as="geometry" />
        </mxCell>
        <mxCell id="QnQLokl2paKiinl1mr7T-76" value="Cont1_SegF" style="text;strokeColor=none;align=center;fillColor=none;html=1;verticalAlign=middle;whiteSpace=wrap;rounded=0;fontSize=10;" parent="1" vertex="1">
          <mxGeometry x="707.5" y="205" width="60" height="30" as="geometry" />
        </mxCell>
        <mxCell id="QnQLokl2paKiinl1mr7T-77" value="Cont1_SegG" style="text;strokeColor=none;align=center;fillColor=none;html=1;verticalAlign=middle;whiteSpace=wrap;rounded=0;fontSize=10;" parent="1" vertex="1">
          <mxGeometry x="707.5" y="235" width="60" height="30" as="geometry" />
        </mxCell>
        <mxCell id="nmVDLG2SwFyJyHrFb4c8-5" style="edgeStyle=orthogonalEdgeStyle;rounded=0;orthogonalLoop=1;jettySize=auto;html=1;exitX=1;exitY=0.3;exitDx=0;exitDy=0;exitPerimeter=0;entryX=0.114;entryY=0.984;entryDx=0;entryDy=0;entryPerimeter=0;endArrow=none;endFill=0;" edge="1" parent="1" source="k2xtMvNpg32Ia1_yo8kl-1" target="QnQLokl2paKiinl1mr7T-62">
          <mxGeometry relative="1" as="geometry">
            <Array as="points">
              <mxPoint x="464" y="120" />
              <mxPoint x="506" y="120" />
            </Array>
          </mxGeometry>
        </mxCell>
        <mxCell id="nmVDLG2SwFyJyHrFb4c8-6" value="" style="verticalLabelPosition=bottom;shadow=0;dashed=0;align=center;html=1;verticalAlign=top;shape=mxgraph.electrical.logic_gates.inverting_contact;" vertex="1" parent="1">
          <mxGeometry x="190" y="110" width="10" height="10" as="geometry" />
        </mxCell>
        <mxCell id="nmVDLG2SwFyJyHrFb4c8-7" value="Pos0" style="text;strokeColor=none;align=center;fillColor=none;html=1;verticalAlign=middle;whiteSpace=wrap;rounded=0;fontSize=10;" vertex="1" parent="1">
          <mxGeometry x="140" y="100" width="60" height="30" as="geometry" />
        </mxCell>
        <mxCell id="nmVDLG2SwFyJyHrFb4c8-8" style="edgeStyle=orthogonalEdgeStyle;rounded=0;orthogonalLoop=1;jettySize=auto;html=1;exitX=0.9;exitY=0.5;exitDx=0;exitDy=0;exitPerimeter=0;entryX=0.5;entryY=0;entryDx=0;entryDy=0;entryPerimeter=0;endArrow=none;endFill=0;" edge="1" parent="1" source="nmVDLG2SwFyJyHrFb4c8-6" target="k2xtMvNpg32Ia1_yo8kl-1">
          <mxGeometry relative="1" as="geometry">
            <Array as="points">
              <mxPoint x="414" y="115" />
            </Array>
          </mxGeometry>
        </mxCell>
        <mxCell id="nmVDLG2SwFyJyHrFb4c8-14" value="0" style="text;strokeColor=none;align=center;fillColor=none;html=1;verticalAlign=middle;whiteSpace=wrap;rounded=0;fontSize=10;" vertex="1" parent="1">
          <mxGeometry x="490" y="210" width="60" height="30" as="geometry" />
        </mxCell>
        <mxCell id="nmVDLG2SwFyJyHrFb4c8-17" style="edgeStyle=orthogonalEdgeStyle;rounded=0;orthogonalLoop=1;jettySize=auto;html=1;exitX=0;exitY=0.5;exitDx=0;exitDy=0;exitPerimeter=0;entryX=0.9;entryY=0.5;entryDx=0;entryDy=0;entryPerimeter=0;endArrow=none;endFill=0;" edge="1" parent="1" source="k2xtMvNpg32Ia1_yo8kl-1" target="k2xtMvNpg32Ia1_yo8kl-2">
          <mxGeometry relative="1" as="geometry">
            <Array as="points">
              <mxPoint x="199" y="170" />
            </Array>
          </mxGeometry>
        </mxCell>
        <mxCell id="nmVDLG2SwFyJyHrFb4c8-28" style="edgeStyle=orthogonalEdgeStyle;rounded=0;orthogonalLoop=1;jettySize=auto;html=1;exitX=1;exitY=0.3;exitDx=0;exitDy=0;exitPerimeter=0;endArrow=none;endFill=0;entryX=0.25;entryY=1;entryDx=0;entryDy=0;" edge="1" parent="1" source="nmVDLG2SwFyJyHrFb4c8-18" target="QnQLokl2paKiinl1mr7T-62">
          <mxGeometry relative="1" as="geometry">
            <mxPoint x="530" y="140" as="targetPoint" />
            <mxPoint x="463" y="300" as="sourcePoint" />
            <Array as="points">
              <mxPoint x="480" y="310" />
              <mxPoint x="480" y="140" />
              <mxPoint x="548" y="140" />
            </Array>
          </mxGeometry>
        </mxCell>
        <mxCell id="nmVDLG2SwFyJyHrFb4c8-33" style="edgeStyle=orthogonalEdgeStyle;rounded=0;orthogonalLoop=1;jettySize=auto;html=1;exitX=0.498;exitY=0.016;exitDx=0;exitDy=0;exitPerimeter=0;endArrow=oval;endFill=1;" edge="1" parent="1" source="nmVDLG2SwFyJyHrFb4c8-18">
          <mxGeometry relative="1" as="geometry">
            <mxPoint x="220" y="116" as="targetPoint" />
            <mxPoint x="413" y="260.99999999999994" as="sourcePoint" />
            <Array as="points">
              <mxPoint x="413" y="260" />
              <mxPoint x="220" y="260" />
            </Array>
          </mxGeometry>
        </mxCell>
        <mxCell id="nmVDLG2SwFyJyHrFb4c8-37" style="edgeStyle=orthogonalEdgeStyle;rounded=0;orthogonalLoop=1;jettySize=auto;html=1;exitX=0;exitY=0.5;exitDx=0;exitDy=0;exitPerimeter=0;endArrow=oval;endFill=1;" edge="1" parent="1" source="nmVDLG2SwFyJyHrFb4c8-18">
          <mxGeometry relative="1" as="geometry">
            <mxPoint x="240" y="170" as="targetPoint" />
          </mxGeometry>
        </mxCell>
        <mxCell id="nmVDLG2SwFyJyHrFb4c8-49" style="edgeStyle=orthogonalEdgeStyle;rounded=0;orthogonalLoop=1;jettySize=auto;html=1;exitX=1;exitY=0.7;exitDx=0;exitDy=0;exitPerimeter=0;entryX=0;entryY=0.25;entryDx=0;entryDy=0;entryPerimeter=0;endArrow=none;endFill=0;" edge="1" parent="1" source="nmVDLG2SwFyJyHrFb4c8-18" target="nmVDLG2SwFyJyHrFb4c8-50">
          <mxGeometry relative="1" as="geometry">
            <mxPoint x="330" y="450" as="targetPoint" />
            <Array as="points">
              <mxPoint x="484" y="350" />
              <mxPoint x="484" y="415" />
              <mxPoint x="330" y="415" />
              <mxPoint x="330" y="475" />
            </Array>
          </mxGeometry>
        </mxCell>
        <mxCell id="nmVDLG2SwFyJyHrFb4c8-18" value="" style="verticalLabelPosition=bottom;shadow=0;dashed=0;align=center;html=1;verticalAlign=top;shape=mxgraph.electrical.logic_gates.jk_flip-flop_with_sr;" vertex="1" parent="1">
          <mxGeometry x="364" y="280" width="100" height="100" as="geometry" />
        </mxCell>
        <mxCell id="nmVDLG2SwFyJyHrFb4c8-20" style="edgeStyle=orthogonalEdgeStyle;rounded=0;orthogonalLoop=1;jettySize=auto;html=1;exitX=1;exitY=0.7;exitDx=0;exitDy=0;exitPerimeter=0;entryX=0;entryY=0.7;entryDx=0;entryDy=0;entryPerimeter=0;endArrow=none;endFill=0;" edge="1" parent="1" source="k2xtMvNpg32Ia1_yo8kl-1" target="nmVDLG2SwFyJyHrFb4c8-18">
          <mxGeometry relative="1" as="geometry">
            <Array as="points">
              <mxPoint x="470" y="190" />
              <mxPoint x="470" y="240" />
              <mxPoint x="300" y="240" />
              <mxPoint x="300" y="350" />
            </Array>
          </mxGeometry>
        </mxCell>
        <mxCell id="nmVDLG2SwFyJyHrFb4c8-27" value="FF1" style="text;strokeColor=none;align=center;fillColor=none;html=1;verticalAlign=middle;whiteSpace=wrap;rounded=0;" vertex="1" parent="1">
          <mxGeometry x="384" y="315" width="60" height="30" as="geometry" />
        </mxCell>
        <mxCell id="nmVDLG2SwFyJyHrFb4c8-30" value="0" style="text;strokeColor=none;align=center;fillColor=none;html=1;verticalAlign=middle;whiteSpace=wrap;rounded=0;fontSize=10;" vertex="1" parent="1">
          <mxGeometry x="384" y="220" width="60" height="30" as="geometry" />
        </mxCell>
        <mxCell id="nmVDLG2SwFyJyHrFb4c8-31" value="0" style="text;strokeColor=none;align=center;fillColor=none;html=1;verticalAlign=middle;whiteSpace=wrap;rounded=0;fontSize=10;" vertex="1" parent="1">
          <mxGeometry x="384" y="380" width="60" height="30" as="geometry" />
        </mxCell>
        <mxCell id="nmVDLG2SwFyJyHrFb4c8-34" value="&amp;nbsp;" style="text;whiteSpace=wrap;html=1;" vertex="1" parent="1">
          <mxGeometry x="370" y="80" width="40" height="40" as="geometry" />
        </mxCell>
        <mxCell id="nmVDLG2SwFyJyHrFb4c8-42" style="edgeStyle=orthogonalEdgeStyle;rounded=0;orthogonalLoop=1;jettySize=auto;html=1;exitX=1;exitY=0.3;exitDx=0;exitDy=0;exitPerimeter=0;endArrow=none;endFill=0;entryX=0.47;entryY=1.003;entryDx=0;entryDy=0;entryPerimeter=0;" edge="1" parent="1" target="QnQLokl2paKiinl1mr7T-62">
          <mxGeometry relative="1" as="geometry">
            <mxPoint x="530" y="179.99" as="targetPoint" />
            <mxPoint x="464" y="479.99" as="sourcePoint" />
            <Array as="points">
              <mxPoint x="500" y="480" />
              <mxPoint x="500" y="180" />
            </Array>
          </mxGeometry>
        </mxCell>
        <mxCell id="nmVDLG2SwFyJyHrFb4c8-44" style="edgeStyle=orthogonalEdgeStyle;rounded=0;orthogonalLoop=1;jettySize=auto;html=1;exitX=0;exitY=0.7;exitDx=0;exitDy=0;exitPerimeter=0;endArrow=oval;endFill=1;" edge="1" parent="1" source="nmVDLG2SwFyJyHrFb4c8-39">
          <mxGeometry relative="1" as="geometry">
            <mxPoint x="300" y="350" as="targetPoint" />
          </mxGeometry>
        </mxCell>
        <mxCell id="nmVDLG2SwFyJyHrFb4c8-52" style="edgeStyle=orthogonalEdgeStyle;rounded=0;orthogonalLoop=1;jettySize=auto;html=1;exitX=0;exitY=0.5;exitDx=0;exitDy=0;exitPerimeter=0;endArrow=oval;endFill=1;" edge="1" parent="1" source="nmVDLG2SwFyJyHrFb4c8-39">
          <mxGeometry relative="1" as="geometry">
            <mxPoint x="240" y="330" as="targetPoint" />
          </mxGeometry>
        </mxCell>
        <mxCell id="nmVDLG2SwFyJyHrFb4c8-39" value="" style="verticalLabelPosition=bottom;shadow=0;dashed=0;align=center;html=1;verticalAlign=top;shape=mxgraph.electrical.logic_gates.jk_flip-flop_with_sr;" vertex="1" parent="1">
          <mxGeometry x="364" y="450" width="100" height="100" as="geometry" />
        </mxCell>
        <mxCell id="nmVDLG2SwFyJyHrFb4c8-40" value="FF2" style="text;strokeColor=none;align=center;fillColor=none;html=1;verticalAlign=middle;whiteSpace=wrap;rounded=0;" vertex="1" parent="1">
          <mxGeometry x="384" y="485" width="60" height="30" as="geometry" />
        </mxCell>
        <mxCell id="nmVDLG2SwFyJyHrFb4c8-47" style="edgeStyle=orthogonalEdgeStyle;rounded=0;orthogonalLoop=1;jettySize=auto;html=1;exitX=0;exitY=0.25;exitDx=0;exitDy=0;exitPerimeter=0;endArrow=oval;endFill=1;" edge="1" parent="1" source="nmVDLG2SwFyJyHrFb4c8-45">
          <mxGeometry relative="1" as="geometry">
            <mxPoint x="500" y="270" as="targetPoint" />
            <Array as="points">
              <mxPoint x="320" y="305" />
              <mxPoint x="320" y="270" />
            </Array>
          </mxGeometry>
        </mxCell>
        <mxCell id="nmVDLG2SwFyJyHrFb4c8-48" style="edgeStyle=orthogonalEdgeStyle;rounded=0;orthogonalLoop=1;jettySize=auto;html=1;exitX=0;exitY=0.75;exitDx=0;exitDy=0;exitPerimeter=0;endArrow=oval;endFill=1;" edge="1" parent="1" source="nmVDLG2SwFyJyHrFb4c8-45">
          <mxGeometry relative="1" as="geometry">
            <mxPoint x="300" y="315.1111111111111" as="targetPoint" />
          </mxGeometry>
        </mxCell>
        <mxCell id="nmVDLG2SwFyJyHrFb4c8-45" value="" style="verticalLabelPosition=bottom;shadow=0;dashed=0;align=center;html=1;verticalAlign=top;shape=mxgraph.electrical.logic_gates.logic_gate;operation=and;" vertex="1" parent="1">
          <mxGeometry x="340" y="300" width="30" height="20" as="geometry" />
        </mxCell>
        <mxCell id="nmVDLG2SwFyJyHrFb4c8-51" style="edgeStyle=orthogonalEdgeStyle;rounded=0;orthogonalLoop=1;jettySize=auto;html=1;exitX=0;exitY=0.75;exitDx=0;exitDy=0;exitPerimeter=0;endArrow=oval;endFill=1;" edge="1" parent="1" source="nmVDLG2SwFyJyHrFb4c8-50">
          <mxGeometry relative="1" as="geometry">
            <mxPoint x="300" y="485.1111111111111" as="targetPoint" />
          </mxGeometry>
        </mxCell>
        <mxCell id="nmVDLG2SwFyJyHrFb4c8-50" value="" style="verticalLabelPosition=bottom;shadow=0;dashed=0;align=center;html=1;verticalAlign=top;shape=mxgraph.electrical.logic_gates.logic_gate;operation=and;" vertex="1" parent="1">
          <mxGeometry x="340" y="470" width="30" height="20" as="geometry" />
        </mxCell>
      </root>
    </mxGraphModel>
  </diagram>
</mxfile>
